<svg xmlns="http://www.w3.org/2000/svg" viewBox="0 0 256 256" role="img" aria-label="LaPrint">
  <title>LaPrint</title>
  <g fill="#222B36"><rect x="15.4" y="15.4" width="12.8" height="12.8"/><rect x="41.0" y="15.4" width="12.8" height="12.8"/><rect x="66.6" y="15.4" width="12.8" height="12.8"/><rect x="92.2" y="15.4" width="12.8" height="12.8"/><rect x="117.8" y="15.4" width="12.8" height="12.8"/><rect x="143.4" y="15.4" width="12.8" height="12.8"/><rect x="169.0" y="15.4" width="12.8" height="12.8"/><rect x="15.4" y="28.2" width="12.8" height="12.8"/><rect x="28.2" y="28.2" width="12.8" height="12.8"/><rect x="41.0" y="28.2" width="12.8" height="12.8"/><rect x="66.6" y="28.2" width="12.8" height="12.8"/><rect x="92.2" y="28.2" width="12.8" height="12.8"/><rect x="105.0" y="28.2" width="12.8" height="12.8"/><rect x="130.6" y="28.2" width="12.8" height="12.8"/><rect x="143.4" y="28.2" width="12.8" height="12.8"/><rect x="156.2" y="28.2" width="12.8" height="12.8"/><rect x="169.0" y="28.2" width="12.8" height="12.8"/><rect x="181.8" y="28.2" width="12.8" height="12.8"/><rect x="15.4" y="41.0" width="12.8" height="12.8"/><rect x="28.2" y="41.0" width="12.8" height="12.8"/><rect x="53.8" y="41.0" width="12.8" height="12.8"/><rect x="66.6" y="41.0" width="12.8" height="12.8"/><rect x="117.8" y="41.0" width="12.8" height="12.8"/><rect x="143.4" y="41.0" width="12.8" height="12.8"/><rect x="169.0" y="41.0" width="12.8" height="12.8"/><rect x="15.4" y="53.8" width="12.8" height="12.8"/><rect x="28.2" y="53.8" width="12.8" height="12.8"/><rect x="41.0" y="53.8" width="12.8" height="12.8"/><rect x="53.8" y="53.8" width="12.8" height="12.8"/><rect x="79.4" y="53.8" width="12.8" height="12.8"/><rect x="117.8" y="53.8" width="12.8" height="12.8"/><rect x="143.4" y="53.8" width="12.8" height="12.8"/><rect x="156.2" y="53.8" width="12.8" height="12.8"/><rect x="169.0" y="53.8" width="12.8" height="12.8"/><rect x="181.8" y="53.8" width="12.8" height="12.8"/><rect x="15.4" y="66.6" width="12.8" height="12.8"/><rect x="41.0" y="66.6" width="12.8" height="12.8"/><rect x="53.8" y="66.6" width="12.8" height="12.8"/><rect x="92.2" y="66.6" width="12.8" height="12.8"/><rect x="130.6" y="66.6" width="12.8" height="12.8"/><rect x="15.4" y="79.4" width="12.8" height="12.8"/><rect x="41.0" y="79.4" width="12.8" height="12.8"/><rect x="66.6" y="79.4" width="12.8" height="12.8"/><rect x="79.4" y="79.4" width="12.8" height="12.8"/><rect x="105.0" y="79.4" width="12.8" height="12.8"/><rect x="130.6" y="79.4" width="12.8" height="12.8"/><rect x="181.8" y="79.4" width="12.8" height="12.8"/><rect x="15.4" y="92.2" width="12.8" height="12.8"/><rect x="41.0" y="92.2" width="12.8" height="12.8"/><rect x="156.2" y="92.2" width="12.8" height="12.8"/><rect x="15.4" y="105.0" width="12.8" height="12.8"/><rect x="66.6" y="105.0" width="12.8" height="12.8"/><rect x="79.4" y="105.0" width="12.8" height="12.8"/><rect x="105.0" y="105.0" width="12.8" height="12.8"/><rect x="130.6" y="105.0" width="12.8" height="12.8"/><rect x="143.4" y="105.0" width="12.8" height="12.8"/><rect x="156.2" y="105.0" width="12.8" height="12.8"/><rect x="181.8" y="105.0" width="12.8" height="12.8"/><rect x="15.4" y="117.8" width="12.8" height="12.8"/><rect x="28.2" y="117.8" width="12.8" height="12.8"/><rect x="41.0" y="117.8" width="12.8" height="12.8"/><rect x="53.8" y="117.8" width="12.8" height="12.8"/><rect x="79.4" y="117.8" width="12.8" height="12.8"/><rect x="92.2" y="117.8" width="12.8" height="12.8"/><rect x="156.2" y="117.8" width="12.8" height="12.8"/><rect x="169.0" y="117.8" width="12.8" height="12.8"/><rect x="15.4" y="130.6" width="12.8" height="12.8"/><rect x="28.2" y="130.6" width="12.8" height="12.8"/><rect x="66.6" y="130.6" width="12.8" height="12.8"/><rect x="79.4" y="130.6" width="12.8" height="12.8"/><rect x="92.2" y="130.6" width="12.8" height="12.8"/><rect x="105.0" y="130.6" width="12.8" height="12.8"/><rect x="143.4" y="130.6" width="12.8" height="12.8"/><rect x="156.2" y="130.6" width="12.8" height="12.8"/><rect x="169.0" y="130.6" width="12.8" height="12.8"/><rect x="181.8" y="130.6" width="12.8" height="12.8"/><rect x="15.4" y="143.4" width="12.8" height="12.8"/><rect x="28.2" y="143.4" width="12.8" height="12.8"/><rect x="117.8" y="143.4" width="12.8" height="12.8"/><rect x="15.4" y="156.2" width="12.8" height="12.8"/><rect x="28.2" y="156.2" width="12.8" height="12.8"/><rect x="41.0" y="156.2" width="12.8" height="12.8"/><rect x="53.8" y="156.2" width="12.8" height="12.8"/><rect x="79.4" y="156.2" width="12.8" height="12.8"/><rect x="92.2" y="156.2" width="12.8" height="12.8"/><rect x="105.0" y="156.2" width="12.8" height="12.8"/><rect x="117.8" y="156.2" width="12.8" height="12.8"/><rect x="130.6" y="156.2" width="12.8" height="12.8"/><rect x="143.4" y="156.2" width="12.8" height="12.8"/><rect x="156.2" y="156.2" width="12.8" height="12.8"/><rect x="169.0" y="156.2" width="12.8" height="12.8"/><rect x="181.8" y="156.2" width="12.8" height="12.8"/><rect x="15.4" y="169.0" width="12.8" height="12.8"/><rect x="28.2" y="169.0" width="12.8" height="12.8"/><rect x="41.0" y="169.0" width="12.8" height="12.8"/><rect x="53.8" y="169.0" width="12.8" height="12.8"/><rect x="92.2" y="169.0" width="12.8" height="12.8"/><rect x="105.0" y="169.0" width="12.8" height="12.8"/><rect x="117.8" y="169.0" width="12.8" height="12.8"/><rect x="130.6" y="169.0" width="12.8" height="12.8"/><rect x="143.4" y="169.0" width="12.8" height="12.8"/><rect x="15.4" y="181.8" width="12.8" height="12.8"/><rect x="28.2" y="181.8" width="12.8" height="12.8"/><rect x="41.0" y="181.8" width="12.8" height="12.8"/><rect x="53.8" y="181.8" width="12.8" height="12.8"/><rect x="66.6" y="181.8" width="12.8" height="12.8"/><rect x="79.4" y="181.8" width="12.8" height="12.8"/><rect x="92.2" y="181.8" width="12.8" height="12.8"/><rect x="105.0" y="181.8" width="12.8" height="12.8"/><rect x="117.8" y="181.8" width="12.8" height="12.8"/><rect x="130.6" y="181.8" width="12.8" height="12.8"/><rect x="143.4" y="181.8" width="12.8" height="12.8"/><rect x="156.2" y="181.8" width="12.8" height="12.8"/><rect x="169.0" y="181.8" width="12.8" height="12.8"/><rect x="181.8" y="181.8" width="12.8" height="12.8"/></g>

  <!-- 배지: UDInspect와 같은 위치·크기의 원형 punch-out -->
  <circle cx="169" cy="163.8" r="74.1" fill="#FFFFFF"/>
  <circle cx="169" cy="163.8" r="61.4" fill="#E8F3FC" stroke="#1A6FB5" stroke-width="14.1"/>
  <!-- 라벨 태그 (파랑) -->
  <rect x="136" y="126" width="66" height="34" rx="6"
        fill="#FFFFFF" stroke="#1A6FB5" stroke-width="10" stroke-linejoin="round"/>
  <circle cx="148.5" cy="143" r="5.2" fill="#1A6FB5"/>
  <line x1="162" y1="136.5" x2="191" y2="136.5" stroke="#1A6FB5" stroke-width="7" stroke-linecap="round"/>
  <line x1="162" y1="149.5" x2="183" y2="149.5" stroke="#1A6FB5" stroke-width="7" stroke-linecap="round"/>
  <!-- 출력 화살표 (초록) -->
  <line x1="169" y1="170" x2="169" y2="190" stroke="#2E9E4F" stroke-width="13" stroke-linecap="round"/>
  <polyline points="155,181 169,196 183,181" fill="none" stroke="#2E9E4F"
            stroke-width="13" stroke-linecap="round" stroke-linejoin="round"/>
</svg>
